<?xml version="1.0" encoding="utf-8"?>
<!-- Generator: Adobe Illustrator 16.0.0, SVG Export Plug-In . SVG Version: 6.00 Build 0)  -->
<!DOCTYPE svg PUBLIC "-//W3C//DTD SVG 1.1//EN" "http://www.w3.org/Graphics/SVG/1.1/DTD/svg11.dtd">
<svg version="1.1" id="Layer_1" xmlns="http://www.w3.org/2000/svg" xmlns:xlink="http://www.w3.org/1999/xlink" x="0px" y="0px"
	 width="244.792px" height="67.626px" viewBox="0 0 244.792 67.626" enable-background="new 0 0 244.792 67.626"
	 xml:space="preserve">
<g>
	<path fill="#BE2026" d="M51.632,46.51H39.687c-1.845,0-3.62-0.42-5.325-1.259c-1.845-0.909-3.252-2.355-4.221-4.337
		c-0.97-1.983-1.454-4.163-1.454-6.542c0-2.355,0.467-4.489,1.401-6.402c1.027-2.075,2.452-3.591,4.274-4.548
		c1.004-0.513,1.967-0.874,2.89-1.084c0.922-0.21,1.979-0.315,3.17-0.315h11.07v4.379H41.263c-0.911,0-1.676,0.121-2.295,0.361
		c-0.619,0.241-1.232,0.67-1.839,1.29c-0.608,0.619-1.028,1.221-1.261,1.805c-0.234,0.585-0.351,1.313-0.351,2.184h16.115v4.379
		H35.518c0,0.794,0.105,1.489,0.316,2.084c0.211,0.596,0.592,1.208,1.144,1.839c0.551,0.63,1.126,1.109,1.724,1.436
		c0.598,0.328,1.308,0.491,2.129,0.491h10.802V46.51z"/>
	<path fill="#BE2026" d="M72.336,46.51H59.234c-1.472,0-2.727-0.494-3.766-1.484c-1.04-0.989-1.559-2.24-1.559-3.754
		c0-1.583,0.472-2.893,1.415-3.928c0.944-1.036,2.125-1.554,3.546-1.554h8.456v-0.981c0-0.303-0.053-0.566-0.157-0.788
		c-0.105-0.222-0.273-0.484-0.507-0.788c-0.326-0.374-0.664-0.613-1.013-0.718c-0.349-0.105-0.838-0.158-1.467-0.158h-9.048v-3.994
		h7.777h1.506c1.705,0,2.978,0.146,3.818,0.438c0.841,0.291,1.564,0.729,2.172,1.311c0.771,0.77,1.284,1.609,1.542,2.518
		c0.257,0.909,0.385,2.075,0.385,3.497V46.51z M67.327,42.796v-3.538h-6.166c-0.584,0-1.081,0.168-1.489,0.503
		c-0.409,0.335-0.613,0.781-0.613,1.335c0,0.486,0.198,0.891,0.596,1.214c0.396,0.324,0.852,0.485,1.366,0.485H67.327z"/>
	<path fill="#BE2026" d="M94.336,45.914c0,1.238-0.105,2.242-0.315,3.013c-0.21,0.771-0.666,1.536-1.366,2.295
		c-0.701,0.758-1.448,1.272-2.242,1.542c-0.794,0.268-1.787,0.403-2.978,0.403H76.995v-3.854h8.818c0.304,0,0.527,0,0.667,0
		c0.398,0,0.714-0.03,0.949-0.088c0.234-0.059,0.492-0.192,0.773-0.403c0.187-0.117,0.398-0.327,0.632-0.63
		c0.234-0.304,0.351-0.561,0.351-0.771V46.58H82.83c-2.225,0-4.085-0.957-5.584-2.873c-1.405-1.798-2.107-3.9-2.107-6.306
		c0-2.452,0.765-4.572,2.295-6.358c1.529-1.787,3.462-2.68,5.798-2.68h11.105V45.914z M89.221,42.621l-0.035-10.124h-4.309
		c-1.285,0-2.277,0.508-2.978,1.524c-0.701,1.016-1.051,2.307-1.051,3.871c0,1.191,0.315,2.219,0.946,3.083
		c0.817,1.098,2.008,1.646,3.573,1.646H89.221z"/>
	<path fill="#BE2026" d="M102.778,46.51h-4.939V22.022h4.939V46.51z"/>
	<path fill="#BE2026" d="M121.8,46.615h-8.548c-2.079,0-3.883-0.893-5.412-2.68c-1.53-1.787-2.295-3.848-2.295-6.183
		c0-2.545,0.835-4.747,2.505-6.604c1.669-1.857,3.532-2.785,5.588-2.785h8.127v3.749h-5.956c-0.748,0-1.384,0.064-1.909,0.192
		c-0.526,0.129-1.011,0.38-1.454,0.753c-0.818,0.701-1.226,1.646-1.226,2.837h10.51v3.784h-10.51c0,0.561,0.064,1.033,0.193,1.418
		c0.128,0.386,0.393,0.771,0.791,1.156s0.873,0.643,1.423,0.771c0.551,0.129,1.224,0.193,2.021,0.193h6.151V46.615z"/>
	<path fill="#BE2026" d="M161.281,46.51h-11.946c-1.845,0-3.62-0.42-5.325-1.259c-1.845-0.909-3.252-2.355-4.221-4.337
		c-0.97-1.983-1.454-4.163-1.454-6.542c0-2.355,0.467-4.489,1.401-6.402c1.027-2.075,2.452-3.591,4.273-4.548
		c1.004-0.513,1.968-0.874,2.891-1.084c0.922-0.21,1.979-0.315,3.17-0.315h11.07v4.379h-10.229c-0.912,0-1.677,0.121-2.295,0.361
		c-0.619,0.241-1.232,0.67-1.84,1.29s-1.027,1.221-1.261,1.805c-0.233,0.585-0.351,1.313-0.351,2.184h16.115v4.379h-16.115
		c0,0.794,0.105,1.489,0.316,2.084c0.211,0.596,0.592,1.208,1.144,1.839c0.552,0.63,1.126,1.109,1.724,1.436
		c0.599,0.328,1.309,0.491,2.129,0.491h10.803V46.51z"/>
	<path fill="#BE2026" d="M189.971,46.51h-6.926l-6.362-9.563h-6.609v9.563h-5.816V22.022h17.938c2.031,0,3.713,0.787,5.044,2.359
		c1.331,1.572,1.997,3.43,1.997,5.574c0,1.701-0.572,3.146-1.717,4.333c-1.145,1.188-2.592,1.934-4.344,2.237L189.971,46.51z
		 M182.16,29.711c0-1.139-0.427-2.016-1.279-2.631s-2.002-0.924-3.45-0.924h-7.356v6.831h7.531c1.098,0,2.078-0.244,2.943-0.732
		C181.622,31.651,182.16,30.803,182.16,29.711z"/>
	<path fill="#BE2026" d="M216.105,30.132c0,2.167-0.838,4.014-2.51,5.541c-1.674,1.526-3.668,2.29-5.984,2.29h-10.424v8.548h-6.025
		V22.022h16.78c2.616,0,4.683,0.897,6.2,2.691C215.451,26.275,216.105,28.082,216.105,30.132z M209.273,29.817
		c0-1.046-0.432-1.918-1.296-2.615s-1.856-1.046-2.978-1.046h-7.813v7.567h7.987c1.144,0,2.114-0.372,2.907-1.116
		C208.876,31.864,209.273,30.934,209.273,29.817z"/>
</g>
</svg>
